<svg width="139" height="139" xmlns="http://www.w3.org/2000/svg">

 <g>
  <title>background</title>
  <rect fill="none" id="canvas_background" height="402" width="582" y="-1" x="-1"/>
 </g>
 <g>
  <title>Layer 1</title>
  <path fill="#f5821f" id="svg_1" d="m67.317,81.952c-9.284,-7.634 -15.483,-17.054 -18.742,-22.414l-2.431,-4.583c0.85,-0.912 7.332,-7.853 10.141,-11.619c3.53,-4.729 -1.588,-9 -1.588,-9s-14.401,-14.403 -17.683,-17.26c-3.282,-2.861 -7.06,-1.272 -7.06,-1.272c-6.898,4.457 -14.049,8.332 -14.478,26.968c-0.016,17.448 13.229,35.444 27.552,49.376c14.346,15.734 34.043,31.504 53.086,31.486c18.634,-0.425 22.508,-7.575 26.965,-14.473c0,0 1.59,-3.775 -1.268,-7.06c-2.86,-3.284 -17.265,-17.688 -17.265,-17.688s-4.268,-5.119 -8.998,-1.586c-3.525,2.635 -9.855,8.496 -11.38,9.917c0.003,0.005 -10.586,-5.64 -16.851,-10.792z"/>
 </g>
</svg>