<svg width="32" height="32" xmlns="http://www.w3.org/2000/svg">
 <title/>

 <g>
  <title>background</title>
  <rect fill="none" id="canvas_background" height="402" width="582" y="-1" x="-1"/>
 </g>
 <g>
  <title>Layer 1</title>
  <path fill="#ffffff" id="svg_1" d="m28.61,11.67l-8.61,0l-2.66,-8.2a1.39,1.39 0 0 0 -2.64,0l-2.7,8.2l-8.61,0a1.39,1.39 0 0 0 -0.82,2.51l7,5.07l-2.68,8.21a1.39,1.39 0 0 0 1.32,1.82a1.43,1.43 0 0 0 0.79,-0.28l7,-5.07l7,5.07a1.43,1.43 0 0 0 0.81,0.27a1.39,1.39 0 0 0 1.32,-1.82l-2.66,-8.21l7,-5.07a1.39,1.39 0 0 0 -0.86,-2.5zm-7.34,6l-1.17,0.86l0.44,1.38l2.09,6.41l-5.45,-4l-1.18,-0.86l-1.18,0.86l-5.45,4l2.09,-6.41l0.44,-1.38l-1.17,-0.86l-5.45,-4l8.19,0l0.45,-1.38l2.08,-6.4l2.08,6.4l0.45,1.38l8.19,0l-5.45,4z"/>
 </g>
</svg>